<svg xmlns="http://www.w3.org/2000/svg" width="200" height="200"><g fill="none" fill-rule="nonzero"><path fill="#FFD983" d="M136 79.71c0 21.058-16.364 24.328-16.364 43.953 0 10.13-10.22 10.984-18 10.984-6.719 0-21.554-2.547-21.554-10.99C80.082 104.04 64 100.77 64 79.71 64 59.988 81.296 44 100.272 44 119.253 44 136 59.988 136 79.71"/><path fill="#CCD6DD" d="M113.637 149.824c0 2.708-7.31 8.176-13.637 8.176-6.326 0-13.637-5.468-13.637-8.176 0-2.707 7.308-1.635 13.637-1.635 6.326 0 13.637-1.072 13.637 1.635"/><path fill="#FFCC4D" d="M115.405 77.203a3.27 3.27 0 0 0-4.628 0L100 87.97 89.223 77.203a3.274 3.274 0 0 0-5.475 1.465 3.27 3.27 0 0 0 .847 3.159l12.132 12.122v34.619a3.27 3.27 0 0 0 3.273 3.27 3.27 3.27 0 0 0 3.273-3.27V93.949l12.132-12.122a3.266 3.266 0 0 0 0-4.624"/><path fill="#99AAB5" d="M119.636 144.92c0 3.611-2.93 6.54-6.545 6.54H86.909a6.543 6.543 0 0 1-6.545-6.54v-19.622h39.272z"/><path fill="#CCD6DD" d="M80.36 148.19a3.27 3.27 0 0 1-.533-6.495l39.273-6.54a3.255 3.255 0 0 1 3.763 2.687 3.265 3.265 0 0 1-2.69 3.761l-39.273 6.54a3 3 0 0 1-.54.046m0-13.082a3.27 3.27 0 0 1-.533-6.495l39.273-6.54a3.26 3.26 0 0 1 3.763 2.688 3.265 3.265 0 0 1-2.69 3.761l-39.273 6.54a3 3 0 0 1-.54.046"/></g></svg>