<svg xmlns="http://www.w3.org/2000/svg" width="162" height="216"><g fill="none" fill-rule="nonzero"><path fill="#0075FF" d="M162 133.122C162 178.892 125.729 216 81 216S0 178.892 0 133.122C0 87.336 26.648 0 81 0s81 87.351 81 133.122"/><path fill="#87FFFF" d="M155.905 164.733A84.3 84.3 0 0 0 162 133.122C162 87.336 135.352 0 81 0 45.8 0 22.223 36.651 9.97 74.909z"/><path fill="#AFF" d="m58.163 5.576-18.19 87.792L9.968 74.924C19.356 45.63 35.373 17.278 58.163 5.591"/><path fill="#91DCF1" d="M9.97 74.909C3.306 95.699 0 116.993 0 133.122c0 21.074 7.702 40.32 20.364 54.937l19.608-94.691z"/><path fill="#43C6FD" d="M162 133.122c0 11.183-2.158 21.861-6.095 31.61l-41.154-25.357V12.82C146.408 38.793 162 98.125 162 133.153"/><path fill="#44B5FD" d="M162 133.122c0 11.183-2.158 21.861-6.095 31.61l-41.39-25.483 45.863-27.831c1.086 7.828 1.622 15.183 1.622 21.704"/><path fill="#3E91FF" d="m20.396 187.87 94.198-48.574-74.622-45.928z"/><path fill="#0096FF" d="M114.751 208.487V139.39l41.154 25.343a82.37 82.37 0 0 1-41.154 43.754"/></g></svg>